<svg width="17" height="17" viewBox="0 0 17 17" fill="none" xmlns="http://www.w3.org/2000/svg">
<path d="M12.4735 0.692322H5.06501C2.65386 0.692322 0.692307 2.65387 0.692307 5.06502V12.4736C0.692307 14.8846 2.65386 16.8462 5.06501 16.8462H12.4736C14.8846 16.8462 16.8462 14.8846 16.8462 12.4736V5.06502C16.8462 2.65387 14.8846 0.692322 12.4735 0.692322ZM15.8991 12.4736C15.8991 14.3624 14.3624 15.8992 12.4735 15.8992H5.06501C3.17604 15.8992 1.63931 14.3624 1.63931 12.4736V5.06502C1.63931 3.17606 3.17604 1.63933 5.06501 1.63933H12.4736C14.3624 1.63933 15.8991 3.17606 15.8991 5.06502V12.4736Z" fill="#AC7F55"/>
<path d="M8.76922 4.3523C6.33367 4.3523 4.35228 6.3337 4.35228 8.76925C4.35228 11.2048 6.33367 13.1862 8.76922 13.1862C11.2048 13.1862 13.1862 11.2048 13.1862 8.76925C13.1862 6.3337 11.2048 4.3523 8.76922 4.3523ZM8.76922 12.2392C6.85598 12.2392 5.29928 10.6826 5.29928 8.76925C5.29928 6.856 6.85598 5.29931 8.76922 5.29931C10.6826 5.29931 12.2392 6.856 12.2392 8.76925C12.2392 10.6826 10.6826 12.2392 8.76922 12.2392Z" fill="#AC7F55"/>
<path d="M13.2918 2.78365C12.572 2.78365 11.9866 3.36918 11.9866 4.08881C11.9866 4.80855 12.572 5.39408 13.2918 5.39408C14.0115 5.39408 14.5971 4.80855 14.5971 4.08881C14.5971 3.36906 14.0115 2.78365 13.2918 2.78365ZM13.2918 4.44695C13.0944 4.44695 12.9336 4.28624 12.9336 4.08881C12.9336 3.89125 13.0944 3.73066 13.2918 3.73066C13.4894 3.73066 13.6501 3.89125 13.6501 4.08881C13.6501 4.28624 13.4894 4.44695 13.2918 4.44695Z" fill="#AC7F55"/>
</svg>
