<svg width="140" height="55" viewBox="0 0 140 55" fill="none" xmlns="http://www.w3.org/2000/svg">
<path fill-rule="evenodd" clip-rule="evenodd" d="M20.9059 1.40709C23.0119 4.31311 25.2614 11.8017 17.4234 15.8561C15.2599 13.4302 13.1815 9.51394 20.9059 1.40709ZM19.3103 6.30137C19.476 8.00506 20.6824 9.88697 18.8367 11.4173C18.4305 10.4294 17.6153 8.62046 19.3103 6.30137Z" stroke="#AC7F55"/>
<path fill-rule="evenodd" clip-rule="evenodd" d="M32.7872 19.3948C30.9037 16.3361 24.8713 11.4423 18.2454 17.3088C19.6673 20.2435 22.4873 23.651 32.7872 19.3948ZM27.7071 19.0794C26.2063 18.2915 24.9282 16.4587 22.8402 17.6266C23.5953 18.3752 24.9517 19.8129 27.7071 19.0794Z" stroke="#AC7F55"/>
<path fill-rule="evenodd" clip-rule="evenodd" d="M13.4316 32.4114C11.3256 29.5054 9.07615 22.0168 16.9141 17.9623C19.0777 20.3883 21.156 24.3045 13.4316 32.4114ZM15.0272 27.5171C14.8616 25.8134 13.6551 23.9315 15.5008 22.4012C15.907 23.3891 16.7222 25.198 15.0272 27.5171Z" stroke="#AC7F55"/>
<path fill-rule="evenodd" clip-rule="evenodd" d="M1.55035 14.4237C3.4338 17.4824 9.46616 22.3762 16.0921 16.5097C14.6702 13.575 11.8502 10.1675 1.55035 14.4237ZM6.63038 14.7391C8.13119 15.527 9.40926 17.3598 11.4974 16.1919C10.7422 15.4432 9.38584 14.0055 6.63038 14.7391Z" stroke="#AC7F55"/>
<path d="M35.3497 45.8722L34.9657 47.0562C34.411 47.0989 33.995 47.1202 33.7177 47.1202C32.4377 47.1202 31.3924 46.5762 30.5817 45.4882C29.7924 44.4215 29.3977 43.0242 29.3977 41.2962C29.3977 40.2509 29.6324 38.2775 30.1017 35.3762C30.5924 32.4535 31.1577 29.7869 31.7977 27.3762C31.9257 26.8429 31.9897 26.4909 31.9897 26.3202C31.9897 26.1495 31.915 26.0642 31.7657 26.0642C31.6164 26.0642 31.1364 26.8642 30.3257 28.4642C29.5364 30.0429 28.587 31.9949 27.4777 34.3202C26.3684 36.6242 25.7284 37.9469 25.5577 38.2882C25.4084 38.6082 25.2804 38.8749 25.1737 39.0882C25.0884 39.2802 24.8964 39.6429 24.5977 40.1762C24.3204 40.6882 24.0537 41.1469 23.7977 41.5522C23.0937 42.6189 22.539 43.1522 22.1337 43.1522C21.8564 43.1522 21.547 43.0775 21.2057 42.9282C20.8857 42.7789 20.6724 42.6189 20.5657 42.4482C20.331 42.0855 20.2137 40.9549 20.2137 39.0562C20.2137 35.0882 20.5337 31.3015 21.1737 27.6962C21.387 26.5015 21.4937 25.8722 21.4937 25.8082C21.4937 25.5949 21.4084 25.4882 21.2377 25.4882C20.8964 25.4882 20.3524 26.5549 19.6057 28.6882L18.6777 31.3442C17.3124 35.2055 15.9257 38.2135 14.5177 40.3682C13.131 42.5229 11.531 44.0375 9.71771 44.9122L8.88571 43.1522C10.955 41.6162 12.5444 40.0482 13.6537 38.4482C14.7844 36.8482 16.011 34.2669 17.3337 30.7042L18.4217 27.7922C19.1684 25.7655 19.819 24.3255 20.3737 23.4722C20.9284 22.5975 21.547 22.1602 22.2297 22.1602C23.3604 22.1602 23.9257 22.8429 23.9257 24.2082C23.9257 24.3149 23.723 26.4802 23.3177 30.7042C22.9124 34.9069 22.7097 37.6802 22.7097 39.0242C22.7097 39.4082 22.7737 39.6109 22.9017 39.6322C23.0084 39.6322 23.1257 39.5255 23.2537 39.3122C24.9817 36.4322 26.635 33.2962 28.2137 29.9042C28.4057 29.4775 28.7364 28.7415 29.2057 27.6962C29.675 26.6509 30.1337 25.7229 30.5817 24.9122C31.0297 24.1015 31.371 23.6109 31.6057 23.4402C31.8404 23.2482 32.2137 23.1522 32.7257 23.1522C33.2377 23.1522 33.675 23.3442 34.0377 23.7282C34.4217 24.0909 34.6137 24.5282 34.6137 25.0402C34.6137 25.5522 34.539 26.1389 34.3897 26.8002C32.7257 34.9282 31.8937 39.7922 31.8937 41.3922C31.8937 42.9709 32.1497 44.0482 32.6617 44.6242C33.1737 45.2215 34.0697 45.6375 35.3497 45.8722ZM46.7357 38.8002L47.4717 39.3762C46.8104 40.2935 45.9037 41.0615 44.7517 41.6802C43.5997 42.2775 42.4797 42.5762 41.3917 42.5762C40.3037 42.5762 39.429 42.2562 38.7677 41.6162C38.1064 40.9762 37.7757 40.1335 37.7757 39.0882C37.7757 37.1255 38.8104 35.1949 40.8797 33.2962C42.9704 31.3975 45.0824 30.4482 47.2157 30.4482C48.6237 30.4482 49.3277 31.0029 49.3277 32.1122C49.3277 33.2642 48.581 34.4269 47.0877 35.6002C45.6157 36.7735 43.5357 37.8402 40.8477 38.8002C41.0397 39.2909 41.3384 39.6749 41.7437 39.9522C42.149 40.2295 42.565 40.3682 42.9917 40.3682C43.909 40.3682 45.157 39.8455 46.7357 38.8002ZM40.6877 37.8402C42.4157 37.2429 43.8984 36.4962 45.1357 35.6002C46.373 34.7042 46.9917 33.8829 46.9917 33.1362C46.9917 32.8589 46.885 32.6135 46.6717 32.4002C46.4584 32.1869 46.213 32.0802 45.9357 32.0802C44.933 32.0802 43.845 32.7095 42.6717 33.9682C41.5197 35.2055 40.8584 36.4962 40.6877 37.8402ZM49.372 39.7602L50.972 38.9602C50.972 39.3442 51.1106 39.6749 51.388 39.9522C51.6866 40.2295 52.028 40.3682 52.412 40.3682C54.2253 40.3682 56.2946 37.9789 58.62 33.2002C58.748 32.9229 58.8973 32.6135 59.068 32.2722C59.2386 31.9095 59.3666 31.6429 59.452 31.4722C59.5373 31.2802 59.6333 31.0669 59.74 30.8322C59.868 30.5975 59.964 30.4269 60.028 30.3202C60.1133 30.1922 60.1986 30.0749 60.284 29.9682C60.476 29.7762 60.6893 29.6802 60.924 29.6802C61.18 29.6802 61.404 29.7975 61.596 30.0322C61.788 30.2669 61.884 30.5442 61.884 30.8642C61.884 31.1629 61.4786 32.4855 60.668 34.8322C59.8786 37.1575 59.484 38.5655 59.484 39.0562C59.484 39.5469 59.58 39.9095 59.772 40.1442C59.9853 40.3789 60.188 40.4962 60.38 40.4962C60.5933 40.4962 60.7533 40.4855 60.86 40.4642C60.9666 40.4429 61.0733 40.4002 61.18 40.3362C61.2866 40.2722 61.372 40.2189 61.436 40.1762C61.5213 40.1335 61.6173 40.0589 61.724 39.9522L61.948 39.6962C62.012 39.6535 62.0973 39.5682 62.204 39.4402C62.332 39.2909 62.4173 39.1949 62.46 39.1522L63.132 39.6962C62.7693 40.5922 62.1933 41.3495 61.404 41.9682C60.636 42.5869 59.932 42.8962 59.292 42.8962C58.6733 42.8962 58.1826 42.6829 57.82 42.2562C57.4573 41.8082 57.276 41.2322 57.276 40.5282C57.276 39.8242 57.3933 38.9175 57.628 37.8082C56.6466 39.3442 55.5693 40.5175 54.396 41.3282C53.2226 42.1175 52.2733 42.5122 51.548 42.5122C50.8226 42.5122 50.2786 42.2455 49.916 41.7122C49.5533 41.1789 49.372 40.5282 49.372 39.7602ZM72.6415 35.2802C73.8148 35.2375 74.4015 35.7175 74.4015 36.7202C74.4015 38.0429 73.6868 39.3549 72.2575 40.6562C70.8495 41.9362 69.4308 42.5762 68.0015 42.5762C66.6575 42.5762 65.9855 41.6695 65.9855 39.8562C65.9855 38.4269 66.3375 36.6562 67.0415 34.5442C67.7668 32.4109 68.3641 30.9069 68.8335 30.0322L70.2735 30.5122C69.7188 32.1335 69.1535 34.1175 68.5775 36.4642C70.2841 35.6749 71.6388 35.2802 72.6415 35.2802ZM72.1295 38.5762C72.2575 38.2989 72.3215 38.0215 72.3215 37.7442C72.2575 37.1682 71.7561 36.8802 70.8175 36.8802C70.3695 36.8802 69.5375 37.0722 68.3215 37.4562C68.1508 38.0962 68.0655 38.6722 68.0655 39.1842C68.0655 39.6749 68.1828 40.0695 68.4175 40.3682C68.6735 40.6669 69.0041 40.8162 69.4095 40.8162C69.8361 40.8162 70.3375 40.6029 70.9135 40.1762C71.4895 39.7282 71.8948 39.1949 72.1295 38.5762ZM87.9842 30.1282L89.2322 30.4162C89.2109 30.5655 88.9015 31.2162 88.3042 32.3682C87.7282 33.4989 87.1095 34.9922 86.4482 36.8482C85.7869 38.6829 85.3602 40.5389 85.1682 42.4162L83.1202 42.2562C83.1202 41.0829 83.4935 39.5682 84.2402 37.7122C84.0482 37.6909 83.6535 37.6802 83.0562 37.6802C82.4802 37.6802 81.4135 37.8189 79.8562 38.0962C78.7682 40.5282 78.2242 42.6082 78.2242 44.3362L76.0802 44.0482C76.0802 42.5335 76.6455 40.6669 77.7762 38.4482C76.6882 38.6189 75.6002 38.8749 74.5122 39.2162L74.1922 37.9682C74.1922 37.9042 74.7575 37.7229 75.8882 37.4242C77.0402 37.1255 77.8935 36.9335 78.4482 36.8482C80.1549 32.9229 81.3175 30.6509 81.9362 30.0322L83.3122 30.5762C83.2055 30.7895 82.9602 31.2695 82.5762 32.0162C81.6162 33.8722 80.9655 35.3229 80.6242 36.3682C82.4802 36.1762 83.5895 36.0802 83.9522 36.0802C84.3362 36.0802 84.6562 36.0909 84.9122 36.1122C86.4055 32.6775 87.4295 30.6829 87.9842 30.1282ZM103.994 38.8322L104.666 39.3762C104.303 40.2722 103.727 41.0295 102.938 41.6482C102.17 42.2669 101.466 42.5762 100.826 42.5762C100.207 42.5762 99.7166 42.3629 99.354 41.9362C98.9913 41.4882 98.81 40.9122 98.81 40.2082C98.81 39.5042 98.9273 38.5975 99.162 37.4882C98.1593 39.0669 97.082 40.3042 95.93 41.2002C94.778 42.0962 93.8073 42.5442 93.018 42.5442C91.8233 42.5442 91.226 41.8295 91.226 40.4002C91.226 38.9709 91.7166 37.0509 92.698 34.6402C93.7006 32.2082 94.4153 30.8215 94.842 30.4802L96.378 31.1522C95.5033 32.5602 94.842 33.9469 94.394 35.3122C93.946 36.6775 93.722 37.5949 93.722 38.0642C93.722 38.5122 93.8606 38.8749 94.138 39.1522C94.4366 39.4295 94.778 39.5682 95.162 39.5682C96.0153 39.5682 97.0713 38.7895 98.33 37.2322C99.61 35.6535 100.911 33.3069 102.234 30.1922L103.866 30.9282C103.823 31.0989 103.333 32.3362 102.394 34.6402C101.477 36.9442 101.018 38.3309 101.018 38.8002C101.018 39.2482 101.114 39.5895 101.306 39.8242C101.519 40.0589 101.722 40.1762 101.914 40.1762C102.127 40.1762 102.287 40.1655 102.394 40.1442C102.501 40.1229 102.607 40.0802 102.714 40.0162C102.821 39.9522 102.906 39.8989 102.97 39.8562C103.055 39.8135 103.151 39.7389 103.258 39.6322L103.482 39.3762C103.546 39.3335 103.631 39.2482 103.738 39.1202C103.866 38.9709 103.951 38.8749 103.994 38.8322ZM118.938 39.4402C119.429 38.9282 119.951 38.4269 120.506 37.9362C121.061 37.4242 121.551 37.1682 121.978 37.1682C122.426 37.1682 122.767 37.3069 123.002 37.5842C123.258 37.8402 123.386 38.1815 123.386 38.6082C123.386 39.6962 122.511 42.0322 120.762 45.6162L119.258 45.5202C119.258 45.4989 119.567 44.7629 120.186 43.3122C120.826 41.8829 121.146 40.8909 121.146 40.3362C121.146 39.7815 120.965 39.5042 120.602 39.5042C120.325 39.5042 119.845 40.0162 119.162 41.0402C118.906 41.4242 118.522 41.7762 118.01 42.0962C117.519 42.4162 116.986 42.5762 116.41 42.5762C115.855 42.5762 115.397 42.3522 115.034 41.9042C114.671 41.4562 114.49 40.8909 114.49 40.2082C114.49 39.5255 114.607 38.6615 114.842 37.6162C113.839 39.1735 112.762 40.3895 111.61 41.2642C110.479 42.1389 109.519 42.5762 108.73 42.5762C107.535 42.5762 106.938 41.8615 106.938 40.4322C106.938 39.0029 107.429 37.0829 108.41 34.6722C109.413 32.2402 110.127 30.8535 110.554 30.5122L112.09 31.1842C111.215 32.5922 110.554 33.9789 110.106 35.3442C109.658 36.7095 109.434 37.6269 109.434 38.0962C109.434 38.5442 109.573 38.9069 109.85 39.1842C110.149 39.4615 110.49 39.6002 110.874 39.6002C111.727 39.6002 112.783 38.8215 114.042 37.2642C115.322 35.6855 116.623 33.3389 117.946 30.2242L119.578 30.9602C119.535 31.1309 119.045 32.3682 118.106 34.6722C117.189 36.9762 116.73 38.3629 116.73 38.8322C116.73 39.2802 116.826 39.6215 117.018 39.8562C117.231 40.0695 117.487 40.1762 117.786 40.1762C118.085 40.1762 118.469 39.9309 118.938 39.4402ZM138.004 39.3442L138.74 39.8882C138.441 40.5282 137.886 41.1362 137.076 41.7122C136.286 42.2882 135.561 42.5762 134.9 42.5762C133.641 42.5762 133.012 41.9149 133.012 40.5922C133.012 39.9735 133.172 39.2375 133.492 38.3842L132.308 39.6002C131.156 40.7735 130.153 41.5629 129.3 41.9682C128.468 42.3735 127.646 42.5762 126.836 42.5762C126.025 42.5762 125.406 42.3522 124.98 41.9042C124.574 41.4349 124.372 40.7949 124.372 39.9842C124.372 38.4909 124.948 37.0189 126.1 35.5682C127.252 34.0962 128.724 32.9015 130.516 31.9842C132.308 31.0669 134.1 30.5975 135.892 30.5762L135.956 31.6322L134.612 31.9202C132.67 32.3469 130.953 33.2002 129.46 34.4802C127.988 35.7602 127.252 37.0402 127.252 38.3202C127.252 39.5789 127.764 40.2082 128.788 40.2082C129.748 40.2082 130.932 39.5362 132.34 38.1922C133.748 36.8482 134.921 35.2695 135.86 33.4562L137.204 34.2562C135.881 36.9229 135.22 38.6189 135.22 39.3442C135.22 39.6429 135.316 39.8989 135.508 40.1122C135.721 40.3042 135.924 40.4002 136.116 40.4002C136.329 40.4002 136.468 40.3895 136.532 40.3682C136.596 40.3469 136.66 40.3255 136.724 40.3042C136.788 40.2615 136.862 40.2082 136.948 40.1442C137.054 40.0802 137.14 40.0162 137.204 39.9522C137.289 39.8882 137.417 39.7922 137.588 39.6642C137.758 39.5362 137.897 39.4295 138.004 39.3442Z" fill="black"/>
</svg>
