<svg width="15" height="15" viewBox="0 0 15 15" fill="none" xmlns="http://www.w3.org/2000/svg">
<path fill-rule="evenodd" clip-rule="evenodd" d="M10.5674 0C11.3754 1.63258 11.8918 5.58301 7.70878 6.99057C6.83441 5.59494 6.1199 3.45618 10.5674 0ZM9.3941 2.3343C9.34102 3.2051 9.78675 4.24964 8.75622 4.87076C8.63412 4.34075 8.37546 3.36456 9.3941 2.3343Z" fill="#AC7F55"/>
<path fill-rule="evenodd" clip-rule="evenodd" d="M15 10.0121C14.3137 8.32071 11.728 5.37065 7.99897 7.78804C8.46758 9.37982 9.58785 11.3224 15 10.0121ZM12.5216 9.44319C11.8443 8.92547 11.3594 7.89987 10.2381 8.31903C10.551 8.75677 11.1057 9.58985 12.5216 9.44319Z" fill="#AC7F55"/>
<path fill-rule="evenodd" clip-rule="evenodd" d="M4.43263 15C3.62462 13.3674 3.10822 9.41699 7.29123 8.00943C8.16559 9.40506 8.88011 11.5438 4.43263 15ZM5.60591 12.6657C5.65898 11.7949 5.21325 10.7504 6.24379 10.1292C6.36588 10.6592 6.62454 11.6354 5.60591 12.6657Z" fill="#AC7F55"/>
<path fill-rule="evenodd" clip-rule="evenodd" d="M0 4.98787C0.686289 6.6793 3.27199 9.62935 7.00103 7.21197C6.53242 5.62019 5.41215 3.67758 0 4.98787ZM2.47843 5.55682C3.15571 6.07454 3.64061 7.10014 4.76194 6.68098C4.44898 6.24324 3.89429 5.41016 2.47843 5.55682Z" fill="#AC7F55"/>
</svg>
