<svg width="17" height="17" viewBox="0 0 17 17" fill="none" xmlns="http://www.w3.org/2000/svg">
<path fill-rule="evenodd" clip-rule="evenodd" d="M12.0173 11.3532L12.0131 11.3518C11.9729 11.3381 11.8973 11.3299 11.8068 11.3502C11.7649 11.3596 11.731 11.3728 11.7077 11.3848C11.6965 11.3906 11.69 11.3949 11.6873 11.3968L11.643 11.4424L9.29975 13.2113L8.77953 12.9336C6.51253 11.7235 5.08162 10.2941 3.88558 8.03953L3.61051 7.52102L5.33343 5.23077L5.37959 5.18467C5.4789 5.08549 5.51793 4.94207 5.47377 4.79593C5.13891 3.77869 4.96941 2.71312 4.96941 1.62965C4.96942 1.42472 4.80121 1.25645 4.59629 1.25645H1.6296C1.42467 1.25645 1.25644 1.42468 1.25644 1.62961C1.25644 9.3127 7.50845 15.5647 15.1915 15.5647C15.3965 15.5647 15.5647 15.3965 15.5647 15.1915V12.2332C15.5647 12.0283 15.3964 11.86 15.1915 11.86C14.1061 11.86 13.0371 11.6902 12.0215 11.3546L12.0173 11.3532ZM16.4878 12.2331V15.1915C16.4878 15.9063 15.9063 16.4878 15.1915 16.4878C6.99863 16.4878 0.333328 9.82252 0.333328 1.62961C0.333328 0.914862 0.914846 0.333344 1.6296 0.333344H4.59629C5.31104 0.333344 5.89256 0.914862 5.89252 1.62965C5.89252 2.61911 6.04767 3.58977 6.35309 4.51486C6.50168 4.98814 6.37766 5.49254 6.03189 5.83784L4.70104 7.60692C5.81015 9.69762 7.10772 10.9948 9.21423 12.1192L11.0306 10.748C11.3059 10.4654 11.8602 10.3243 12.3111 10.4781C13.2314 10.7822 14.2025 10.9369 15.1915 10.9369C15.9063 10.9369 16.4878 11.5184 16.4878 12.2331Z" fill="#AC7F55"/>
</svg>
