<svg width="23" height="14" viewBox="0 0 23 14" fill="none" xmlns="http://www.w3.org/2000/svg">
<path d="M13.9533 0.211138C14.5888 0.301002 15.2112 0.460632 15.8261 0.6496C16.8997 0.98018 17.9126 1.43943 18.8653 2.03522C18.9316 2.07634 19.0201 2.10244 19.0982 2.10244C20.2172 2.10706 21.3358 2.10544 22.4539 2.10637C22.544 2.10637 22.6336 2.11584 22.7235 2.12092C22.7235 2.14287 22.7267 2.15211 22.723 2.15719C22.6708 2.23758 22.6179 2.31682 22.5655 2.39698C22.1859 2.97913 21.8616 3.58808 21.6701 4.26125C21.6493 4.33356 21.6449 4.39409 21.6939 4.46501C22.69 5.89544 23.0079 7.46586 22.5916 9.15872C22.2266 10.6434 21.3755 11.801 20.0823 12.6207C19.158 13.2068 18.137 13.4858 17.0461 13.4918C16.5878 13.4946 16.1318 13.4329 15.6841 13.317C14.5932 13.034 13.6581 12.4902 12.8874 11.6666C12.7858 11.5585 12.6901 11.4455 12.5818 11.3233C12.1743 11.9306 11.7733 12.528 11.3625 13.1412C10.9534 12.5299 10.5579 11.9383 10.1633 11.349C10.1361 11.3633 10.1282 11.3649 10.1229 11.37C10.1139 11.3774 10.1063 11.3864 10.0991 11.3949C9.16697 12.4957 7.99435 13.1705 6.56576 13.3962C5.77108 13.5221 4.98402 13.4768 4.21221 13.2641C3.11836 12.9635 2.18877 12.3864 1.43774 11.5349C0.703816 10.7024 0.247335 9.73579 0.0759234 8.63687C-0.120206 7.61117 0.118661 6.6222 0.178262 6.38218C0.35106 5.68452 0.6523 5.04393 1.06581 4.45484C1.09492 4.41303 1.10508 4.3391 1.09122 4.28921C0.922585 3.67078 0.631971 3.10827 0.291689 2.56955C0.205291 2.43256 0.101797 2.30573 0.00615756 2.17428C0.00615756 2.15927 0.00615756 2.14379 0.00615756 2.12854C0.0253316 2.13085 0.0442747 2.13455 0.0629867 2.13455C1.20789 2.13501 2.35255 2.13547 3.49745 2.13316C3.54735 2.13316 3.60279 2.1126 3.6453 2.08534C4.44969 1.56926 5.30674 1.16037 6.20723 0.842034C6.85661 0.612869 7.51961 0.434065 8.19579 0.303081C8.85048 0.176486 9.50863 0.0873157 10.1737 0.0434233C11.7952 -0.0813236 13.0912 0.0903188 13.9533 0.211138ZM12.518 7.77242C12.518 10.2865 14.5579 12.3405 17.063 12.3308C19.5776 12.3218 21.6082 10.3256 21.6063 7.78374C21.6045 5.16428 19.4796 3.19513 16.9655 3.24618C14.4835 3.2977 12.5407 5.29827 12.518 7.77242ZM5.70062 3.22886C3.25512 3.2076 1.12287 5.2486 1.16561 7.84842C1.20534 10.2729 3.2036 12.3282 5.75144 12.3063C8.24268 12.285 10.2451 10.2507 10.2497 7.7872C10.2536 5.25623 8.22674 3.22886 5.70062 3.22886ZM5.92609 2.04284C7.30755 2.12716 8.52106 2.60859 9.54629 3.54096C10.5694 4.47148 11.1689 5.63232 11.3868 6.99737C11.6108 5.64849 12.1946 4.4985 13.1986 3.57723C14.2042 2.65502 15.4015 2.17105 16.7604 2.06871C15.1479 1.35188 13.4476 1.0474 11.6975 1.01368C9.70846 0.974635 7.77373 1.26779 5.92609 2.04284Z" fill="#AC7F55"/>
<path d="M17.0537 4.90415C18.6096 4.90161 19.8698 6.15509 19.8698 7.70934C19.8698 9.2696 18.6311 10.4757 17.1697 10.5314C15.5376 10.594 14.2317 9.29362 14.2322 7.71627C14.2335 6.1209 15.5487 4.87782 17.0537 4.90415ZM18.8889 7.71627C18.8882 6.70212 18.0683 5.87787 17.0611 5.87787C16.0424 5.87787 15.213 6.69774 15.2089 7.70888C15.2052 8.71563 16.0387 9.55328 17.048 9.55606C18.0589 9.55998 18.8894 8.72857 18.8889 7.71627Z" fill="#AC7F55"/>
<path d="M5.64056 4.90416C7.19551 4.90254 8.45753 6.15833 8.4536 7.71235C8.44921 9.28532 7.20937 10.4651 5.77362 10.5305C4.13505 10.6053 2.81297 9.29918 2.81597 7.71327C2.8192 6.10658 4.14337 4.87736 5.64056 4.90416ZM7.47365 7.71004C7.47064 6.68966 6.64547 5.87626 5.61538 5.87811C4.62179 5.87996 3.78923 6.71853 3.79154 7.71582C3.79408 8.72465 4.62572 9.55422 5.63779 9.55699C6.64362 9.5593 7.47619 8.72165 7.47365 7.71004Z" fill="#AC7F55"/>
<path d="M17.0551 6.78276C17.5708 6.7823 17.9935 7.20529 17.9887 7.7179C17.9836 8.23168 17.568 8.64796 17.0609 8.64819C16.5388 8.64819 16.1191 8.2356 16.1202 7.72437C16.1211 7.19397 16.5289 6.78323 17.0551 6.78276Z" fill="#AC7F55"/>
<path d="M5.63571 6.77444C6.15918 6.77397 6.57986 7.19211 6.58194 7.71396C6.58401 8.23143 6.15941 8.65626 5.63848 8.65742C5.10507 8.65857 4.69364 8.24645 4.6941 7.71027C4.6941 7.18379 5.10461 6.77513 5.63571 6.77444Z" fill="#AC7F55"/>
</svg>
